<svg width="262" height="205" viewBox="0 0 262 205" fill="none" xmlns="http://www.w3.org/2000/svg">
<path d="M261.862 114.148H197.647C197.647 90.1517 218.218 82.4863 228.504 81.6531C257.859 82.3197 262.974 103.594 261.862 114.148Z" fill="#00BAF2"/>
<path d="M195.04 55.3554L185.138 108.315C164.366 104.439 160.903 86.2346 161.767 77.6172C166.871 53.5147 186.076 52.7333 195.04 55.3554Z" fill="#FCAF18"/>
<path d="M180.172 181.722L197.622 119.98C220.736 126.501 222.53 148.363 220.537 158.479C211.918 186.522 190.036 185.659 180.172 181.722Z" fill="#7FC241"/>
<path d="M136.375 4.35591C185.078 -8.30866 217.824 9.63281 228.11 20.1866C218.77 54.181 194.196 52.1258 183.076 46.8489C200.423 3.52272 147.494 24.3526 118.862 40.1833C24.1244 109.505 58.261 154.053 87.1714 167.662C123.865 173.661 144.714 156.275 150.552 146.832C124.533 152.831 118.584 131.002 118.862 119.337H183.076C177.072 152.665 149.44 178.771 136.375 187.659C80.333 221.653 32.9644 197.935 16.2853 181.827C-22.4103 131.168 16.8412 76.2884 41.3039 55.1808C52.7013 43.5161 87.6718 17.0205 136.375 4.35591Z" fill="#004E96"/>
</svg>
